<?xml version="1.0" encoding="utf-8"?>
<svg id="master-artboard" viewBox="0 0 219.8544921875 58.943843841552734" xmlns="http://www.w3.org/2000/svg" width="219.8544921875px" height="58.943843841552734px" version="1.1" style="shape-rendering:geometricPrecision; text-rendering:geometricPrecision; image-rendering:optimizeQuality; fill-rule:evenodd; clip-rule:evenodd">
 
 <metadata id="CorelCorpID_0Corel-Layer"/>
<rect id="ee-background" x="0" y="0" width="219.8544921875" height="58.943843841552734" style="fill: white; fill-opacity: 0; pointer-events: none;"/><g transform="matrix(0.1656508892774582, 0, 0, 0.18604750266575862, 2.3536128997802734, -64.8091414317393)"><desc>Created with Fabric.js 5.3.0</desc><g transform="matrix(0.9999999999999999, 0, 0, 0.9999999999999999, 6.259904529209237, 21.127177786081177)"><g id="tagline-cf4db01f-7c17-480c-b717-77cf55270969-logo" transform="matrix(1.9211537837982176, 0, 0, 1.9211537837982176, 799.2467041015624, 510.3587341308593)">
<g paint-order="stroke" style="">
		<g id="tagline-cf4db01f-7c17-480c-b717-77cf55270969-logo-path-0" transform="matrix(1 0 0 1 0 0)">
<filter width="146.04448742746615%" x="-23.022243713733076%" height="140%" y="-20%" id="SVGID_94989">
	<feGaussianBlur stdDeviation="0" in="SourceAlpha"/>
	<feOffset result="oBlur" dy="0" dx="5"/>
	<feFlood flood-opacity="1" flood-color="rgb(46,210,255)"/>
	<feComposite operator="in" in2="oBlur"/>
	<feMerge>
		<feMergeNode/>
		<feMergeNode in="SourceGraphic"/>
	</feMerge>
</filter>
<path stroke-linecap="round" d="M 16.06 0.44 C 23.41 0.44 27.24 -1.14 28.82 -4 C 29.57 -5.46 29.96 -7.3 29.96 -9.59 C 29.96 -15.58 27.19 -18.48 19.4 -18.48 L 16.06 -18.48 C 12.98 -18.48 11.22 -18.48 10.34 -19.36 C 9.94 -19.76 9.72 -20.46 9.72 -21.43 C 9.72 -23.41 10.25 -24.33 12.06 -24.77 C 12.94 -24.99 14.3 -25.08 16.1 -25.08 C 18.7 -25.08 20.02 -24.86 20.9 -23.5 C 21.34 -22.84 21.56 -21.78 21.56 -20.42 L 29.08 -20.42 C 29.08 -28.51 24.68 -31.24 16.1 -31.24 C 8.76 -31.24 4.93 -29.66 3.39 -26.8 C 2.6 -25.34 2.2 -23.5 2.2 -21.21 C 2.2 -15.22 4.97 -12.32 12.76 -12.32 L 16.06 -12.32 C 19.01 -12.32 20.9 -12.14 21.82 -11.26 C 22.22 -10.82 22.44 -10.21 22.44 -9.37 C 22.44 -7.39 21.91 -6.51 20.15 -6.07 C 19.23 -5.85 17.86 -5.72 16.06 -5.72 C 12.89 -5.72 11.31 -5.98 10.43 -7.3 C 9.94 -7.96 9.72 -8.98 9.72 -10.38 L 2.2 -10.38 C 2.2 -4.8 4.36 -1.8 8.4 -0.53 C 10.38 0.13 12.94 0.44 16.06 0.44 Z M 49.46 0.44 C 59.31 0.44 64.2 -4.18 64.2 -14.34 L 64.15 -30.8 L 56.67 -30.8 L 56.67 -12.98 C 56.67 -8.1 54.38 -5.72 49.46 -5.72 C 44.57 -5.72 42.2 -8.01 42.2 -12.98 L 42.15 -30.8 L 34.67 -30.8 L 34.67 -14.34 C 34.67 -4.49 39.29 0.44 49.46 0.44 Z M 92.66 0 L 100.14 0 L 88.48 -30.8 L 80.56 -30.8 L 68.9 0 L 76.38 0 L 78.54 -5.72 L 90.51 -5.72 Z M 88.18 -11.88 L 80.87 -11.88 L 84.52 -21.52 Z M 104.85 0 L 112.33 0 L 112.33 -10.12 L 117.92 -10.12 L 123.77 0 L 131.69 0 L 125.44 -10.82 C 129.23 -12.14 131.12 -15.4 131.12 -20.55 C 131.12 -27.37 127.69 -30.8 120.82 -30.8 L 104.85 -30.8 Z M 120.78 -16.28 L 112.33 -16.28 L 112.33 -24.64 L 120.78 -24.64 C 122.58 -24.64 123.64 -23.28 123.64 -20.5 C 123.64 -17.69 122.67 -16.28 120.78 -16.28 Z M 160.16 0 L 167.64 0 L 155.98 -30.8 L 148.06 -30.8 L 136.4 0 L 143.88 0 L 146.04 -5.72 L 158 -5.72 Z M 155.67 -11.88 L 148.37 -11.88 L 152.02 -21.52 Z" transform="translate(-84.92, 15.399999999999999)" paint-order="stroke" style="stroke: none; stroke-width: 0; stroke-dasharray: none; stroke-linecap: butt; stroke-dashoffset: 0; stroke-linejoin: miter; stroke-miterlimit: 4; fill: rgb(87, 0, 147); fill-rule: nonzero; opacity: 1; filter: url('#SVGID_94989'); fill-opacity: 1;"/>
</g>
</g>
</g><g id="text-logo" transform="matrix(1.9211537837982176, 0, 0, 1.9211537837982176, 873.8450927734374, 440.3528442382812)">
<g paint-order="stroke" style="">
		<g id="text-logo-path-0" transform="matrix(1 0 0 1 0 0)">
<filter width="142.4129818143017%" x="-21.206490907150854%" height="140%" y="-20%" id="SVGID_94988">
	<feGaussianBlur stdDeviation="0" in="SourceAlpha"/>
	<feOffset result="oBlur" dy="0" dx="2.9329793952837235"/>
	<feFlood flood-opacity="1" flood-color="rgb(46,210,255)"/>
	<feComposite operator="in" in2="oBlur"/>
	<feMerge>
		<feMergeNode/>
		<feMergeNode in="SourceGraphic"/>
	</feMerge>
</filter>
<path stroke-linecap="round" d="M 16.06 0.44 C 23.41 0.44 27.24 -1.14 28.82 -4 C 29.57 -5.46 29.96 -7.3 29.96 -9.59 C 29.96 -15.58 27.19 -18.48 19.4 -18.48 L 16.06 -18.48 C 12.98 -18.48 11.22 -18.48 10.34 -19.36 C 9.94 -19.76 9.72 -20.46 9.72 -21.43 C 9.72 -23.41 10.25 -24.33 12.06 -24.77 C 12.94 -24.99 14.3 -25.08 16.1 -25.08 C 18.7 -25.08 20.02 -24.86 20.9 -23.5 C 21.34 -22.84 21.56 -21.78 21.56 -20.42 L 29.08 -20.42 C 29.08 -28.51 24.68 -31.24 16.1 -31.24 C 8.76 -31.24 4.93 -29.66 3.39 -26.8 C 2.6 -25.34 2.2 -23.5 2.2 -21.21 C 2.2 -15.22 4.97 -12.32 12.76 -12.32 L 16.06 -12.32 C 19.01 -12.32 20.9 -12.14 21.82 -11.26 C 22.22 -10.82 22.44 -10.21 22.44 -9.37 C 22.44 -7.39 21.91 -6.51 20.15 -6.07 C 19.23 -5.85 17.86 -5.72 16.06 -5.72 C 12.89 -5.72 11.31 -5.98 10.43 -7.3 C 9.94 -7.96 9.72 -8.98 9.72 -10.38 L 2.2 -10.38 C 2.2 -4.8 4.36 -1.8 8.4 -0.53 C 10.38 0.13 12.94 0.44 16.06 0.44 Z M 49.46 0.44 C 59.31 0.44 64.2 -4.18 64.2 -14.34 L 64.15 -30.8 L 56.67 -30.8 L 56.67 -12.98 C 56.67 -8.1 54.38 -5.72 49.46 -5.72 C 44.57 -5.72 42.2 -8.01 42.2 -12.98 L 42.15 -30.8 L 34.67 -30.8 L 34.67 -14.34 C 34.67 -4.49 39.29 0.44 49.46 0.44 Z M 83.56 0 L 91.65 0 L 98.82 -17.12 L 98.82 0 L 106.3 0 L 106.3 -30.8 L 97.06 -30.8 L 87.6 -8.18 L 78.14 -30.8 L 68.9 -30.8 L 68.9 0 L 76.38 0 L 76.38 -17.12 Z M 111.01 0 L 129.8 0 C 136.31 0 139.48 -2.99 139.48 -9.68 C 139.48 -13.99 138.07 -16.85 135.3 -18.26 C 136.62 -19.58 137.28 -21.34 137.28 -23.54 C 137.28 -27.98 134.38 -30.8 130.02 -30.8 L 111.01 -30.8 Z M 129.8 -6.16 L 118.49 -6.16 L 118.49 -13.2 L 129.8 -13.2 C 131.34 -13.2 132 -12.14 132 -9.68 C 132 -7.35 131.34 -6.16 129.8 -6.16 Z M 128.35 -19.36 L 118.49 -19.36 L 118.49 -24.64 L 128.35 -24.64 C 129.23 -24.64 129.8 -23.54 129.8 -22 C 129.8 -20.42 129.18 -19.36 128.35 -19.36 Z M 167.95 0 L 175.43 0 L 163.77 -30.8 L 155.85 -30.8 L 144.19 0 L 151.67 0 L 153.82 -5.72 L 165.79 -5.72 Z M 163.46 -11.88 L 156.16 -11.88 L 159.81 -21.52 Z M 200.38 0 L 209.62 0 L 209.62 -30.8 L 202.14 -30.8 L 202.14 -9.55 L 189.38 -30.8 L 180.14 -30.8 L 180.14 0 L 187.62 0 L 187.62 -21.25 Z M 230.21 0.44 C 240.02 0.44 245.04 -3.08 245.26 -10.08 L 245.26 -16.24 L 231.13 -16.24 L 231.13 -10.08 L 237.73 -10.08 C 237.42 -7.22 234.08 -5.72 230.21 -5.72 C 224.53 -5.72 221.8 -8.62 221.8 -15.44 C 221.8 -22 224.36 -25.08 230.21 -25.08 C 234.48 -25.08 237.82 -23.76 237.82 -20.24 L 245.3 -20.24 C 244.77 -27.59 239.01 -31.24 230.21 -31.24 C 219.47 -31.24 214.32 -26.4 214.32 -15.44 C 214.32 -4.71 219.16 0.44 230.21 0.44 Z" transform="translate(-123.75000000000001, 15.399999999999999)" paint-order="stroke" style="stroke: none; stroke-width: 0; stroke-dasharray: none; stroke-linecap: butt; stroke-dashoffset: 0; stroke-linejoin: miter; stroke-miterlimit: 4; fill: rgb(87, 0, 147); fill-rule: nonzero; opacity: 1; filter: url('#SVGID_94988'); fill-opacity: 1;"/>
</g>
</g>
</g><g id="logo-logo" transform="matrix(1.9211537837982176, 0, 0, 1.9211537837982176, 368.4460144042969, 478.5271606445312)">
<g paint-order="stroke" style="">
		<g transform="matrix(0.4921492750180461 0 0 0.4921492750180461 0.6184908347901228 0.00001872627990451292)">
<path stroke-linecap="round" d="M 188.3719025 359.9939575 C 188.3719025 362.3515014 184.3108216 364.6969604 184.3586426 367.0181885 C 176.97192379999998 365.3255615 168.992508 363.8022461 160.348404 362.5086975 C 160.3608094 361.67449949999997 158.3993684 360.8466797 158.3993684 360.0003967 C 158.3993684 359.1661987 160.3608094 358.32559200000003 160.348404 357.491394 C 168.992508 356.1856689 176.97192389999998 354.6744384 184.3586426 352.9697876 C 184.3108215 355.2910156 188.3719025 357.6364136 188.3719025 359.9939575 z M 240.9635925 332.0180969 C 241.7853241 340.8678589 233.93853760000002 349.37493889999996 233.93853760000002 359.1072387 C 233.93853760000002 368.8395385 241.78532410000003 379.1322021 240.95178220000003 387.981903 C 252.13487240000003 394.1719665 260.87521360000005 400.5432433 268.44375610000003 406.2980041 C 266.9567261 391.75399780000004 275.86236570000005 376.1822509 275.86236570000005 359.9939575 C 275.86236570000005 343.80566410000006 266.9567261000001 328.2460937 268.44375610000003 313.7020569 C 260.8752136 319.4567566 252.1466827 325.828125 240.9635925 332.0180969 z M 351.8759766 316.0716248 C 353.2177735 329.92657479999997 345.4735108 344.68820189999997 345.4735108 359.9939576 C 345.4735108 375.31173709999996 353.21777349999996 390.0734864 351.8759766 403.92837529999997 C 360.7254944 395.12701419999996 369.2243958 385.43096929999996 378.3767701 378.1045228 C 378.0379334 372.24099739999997 387.0094605 365.34805309999996 387.0094605 359.15805059999997 C 387.0094605 352.9680787 378.0379334 347.74697879999997 378.3767701 341.88345339999995 C 369.2243958 334.5690308 360.7254944 324.8730469 351.8759766 316.0716248 z M 460.5752258 333.2149963 C 452.5957946 338.0146789 444.3867798 343.140747 435.5248413 347.0457458 C 435.7066345 351.27719110000004 429.89144899999997 355.61141960000003 429.89144899999997 360.00003050000004 C 429.89144899999997 364.4007568 435.70663449999995 368.7107849 435.5248413 372.9542541 C 444.3867798 376.8593139 452.5957947 381.985382 460.5752258 386.78500360000004 C 460.0191345 378.15292350000004 467.3891601 369.1821899 467.3891601 359.9939575 C 467.3891602 350.8056335 460.0191345 341.8471375 460.5752258 333.2149963 z M 559.7478027 353.344574 C 550.3781738 348.75045780000005 542.7134398999999 342.77807620000004 535.5321655 337.1200562 C 535.9436035 344.531128 527.385498 352.183899 527.385498 359.99395760000004 C 527.385498 367.8040162000001 535.9436035 375.4568482 535.5321655 382.86792 C 542.7134399 377.2099 550.3781738 371.2375184 559.7478027 366.6554871 C 559.6757812 364.46722420000003 564.1140747 362.2487183 564.1140747 360.0000306 C 564.1140747 357.7513429 559.6757812 355.5328369 559.7478027 353.344574 z" transform="translate(-361.25672154999995, -360.0000305)" paint-order="stroke" style="stroke: none; stroke-width: 1; stroke-dasharray: none; stroke-linecap: butt; stroke-dashoffset: 0; stroke-linejoin: miter; stroke-miterlimit: 4; fill: rgb(148, 55, 255); fill-rule: nonzero; opacity: 1; fill-opacity: 1;"/>
</g>
		<g transform="matrix(0.4921492750180461 0 0 0.4921492750180461 -0.3267890352514655 0.00001875088739211606)">
<path stroke-linecap="round" d="M 160.3608093 359.993988 C 160.3608093 360.8403015 160.3608093 361.6744995 160.3484039 362.5086975 C 159.2002258 362.33941649999997 155.4245453 367.187439 154.2521515 367.0181885 C 149.76687619999998 366.3895569 149.754364 368.9045105 146.1398163 371.6368408 C 144.9668427 372.5073242 138.69754030000001 372.9888916 137.1260986 372.9888916 C 133.0032653 372.9888916 128.0795898 363.9008789 128.5630645 359.6936645 C 128.9137115 356.5986633 135.3954772 347.4975585 138.47814929999998 347.0744628 C 140.5454711 346.7964171 148.08134449999997 347.4670104 149.51995839999998 348.6518554 C 152.91726669999997 351.4808349 146.2700042 353.58639519999997 150.64666739999998 352.9697875 C 151.819641 352.800598 159.20022569999998 357.6606444 160.3484039 357.4913939 C 160.3608093 358.325592 160.3608093 359.15979 160.3608093 359.993988 z M 240.9635925 332.0180969 C 226.8424682 339.8281555 206.0810394 329.723053 184.3586425 352.9697876 C 184.3108215 355.29101560000004 184.286621 357.6364441 184.286621 359.993988 C 184.286621 362.3515319 184.3108214 364.6969604 184.3586425 367.0181884 C 204.5036468 385.6080932 226.84246819999998 380.1719054 240.9517821 387.981903 C 241.785324 379.1322021 242.2209777 369.72628779999997 242.2209777 359.993988 C 242.2209777 350.26168820000004 241.7853241 340.8678589 240.9635925 332.0180969 z M 351.8759766 316.0716248 C 339.5317078 303.80047609999997 326.5109253 278.0132752 310.045044 278.0132752 C 294.050232 278.0132752 283.58023080000004 302.22875980000003 268.4437562 313.7020569 C 266.9567262 328.2460938 266.1586 343.8056946 266.1586 359.9939881 C 266.1586 376.18228160000007 266.9567262 391.7539979 268.4437562 406.29800420000004 C 283.5802308 417.77124030000004 294.050232 441.98678590000003 310.045044 441.98678590000003 C 326.5109253 441.98678590000003 339.5317078 416.199585 351.8759766 403.9283753 C 353.2177735 390.07348640000004 353.9308777 375.31176760000005 353.9308777 359.9939881 C 353.9308777 344.6882324 353.2177734 329.9265747 351.8759766 316.0716248 z M 435.5248413 347.0457458 C 426.7478943 350.92660520000004 417.3298645 347.46713250000005 406.82388299999997 347.46713250000005 C 396.19686879999995 347.46713250000005 386.9966735 348.79879750000003 378.37676999999996 341.88345330000004 C 378.03793329999996 347.74697870000006 377.85668939999994 353.80398550000007 377.85668939999994 359.99398800000006 C 377.85668939999994 366.18395990000005 378.03793329999996 372.24099730000006 378.37676999999996 378.1045227000001 C 386.99667359999995 371.20129390000005 396.19686889999997 372.5328674000001 406.82388299999997 372.5328674000001 C 417.32986439999996 372.5328674000001 426.74789419999996 369.0734558000001 435.5248413 372.9542541000001 C 435.7066345 368.71078490000014 435.7910767 364.39471430000015 435.7910767 359.9939880000001 C 435.7910767 355.6053772 435.7066345 351.2771912 435.5248413 347.0457458 z M 535.5321655 337.1200562 C 523.5751343000001 327.68991090000003 512.9481201 305.69729620000004 497.9450683 305.69729620000004 C 484.9118957 305.69729620000004 473.0032958 325.75558480000007 460.5752258 333.2149964 C 460.0191345 341.84713750000003 459.7168884 350.8056641 459.7168884 359.9939881 C 459.7168884 369.1822205 460.0191345 378.1529236 460.5752258 386.7850037 L 460.5876159 386.7850037 C 473.015686 394.2323914 484.9118957 414.3027954 497.9450683 414.3027954 C 512.9481201 414.3027954 523.5751342 392.2979736 535.5321655 382.8679199 C 535.9436035 375.4568481 536.1608276000001 367.8040466 536.1608276000001 359.993988 C 536.1608276000001 352.1839294 535.9436035 344.5311279 535.5321655 337.1200562 z M 583.2937622 350.078064 C 581.2866820999999 349.9450074 576.6026000999999 348.569458 575.2608031999999 349.8146668 C 572.975647 351.9303895 570.5367431 354.6020814 567.6229248 353.5019532 C 565.2533569 352.6072999 561.9243164 354.4205933 559.7478027 353.344574 C 559.6757812 355.5328369 559.6392212 357.7453003 559.6392212 359.9939881 C 559.6392212 362.24267590000005 559.6757812999999 364.46722420000003 559.7478027 366.6554871 C 562.06958 365.506958 564.4136963 368.4039002 566.9644774999999 367.460846 C 569.7212523999999 366.4332581 570.3554076999999 365.9806519 572.4953612999999 367.9876099 C 573.7285155999999 369.1602784 577.7687987999999 369.5678711 579.6065062999999 369.5678711 C 583.4873045999999 369.5678711 590.2017210999999 364.5060425 590.1415404999999 360.61309819999997 C 590.0931396 357.0586853 586.8480835 350.3077698 583.2937622 350.078064 z" transform="translate(-359.33600375557285, -360.00003055)" paint-order="stroke" style="stroke: none; stroke-width: 1; stroke-dasharray: none; stroke-linecap: butt; stroke-dashoffset: 0; stroke-linejoin: miter; stroke-miterlimit: 4; fill: rgb(87, 0, 147); fill-rule: nonzero; opacity: 1; fill-opacity: 1;"/>
</g>
		<g transform="matrix(0.4921492750180461 0 0 0.4921492750180461 0 0)">
<path stroke-linecap="round" d="M 310.0450439 426.7419434 C 326.5109252 426.7419434 339.53170769999997 416.199585 351.8759765 403.9283753 C 346.24191279999997 462.5157166 329.64260859999996 504.9630738 310.0450439 504.9630738 C 290.7013244 504.9630738 274.2950439 463.6521607 268.4437561 406.29800420000004 C 283.5802307 417.7712402 294.0502319 426.7419434 310.0450439 426.7419434 z M 351.8759766 316.0716248 C 346.2419129 257.4843445 329.6426087 215.0369111 310.045044 215.0369111 C 290.7013245 215.0369111 274.295044 256.3479005 268.4437562 313.70205699999997 C 283.5802308 302.22875989999994 294.050232 293.2581178 310.045044 293.2581178 C 326.5109253 293.2581177 339.5317078 303.8004761 351.8759766 316.0716248 z M 378.37677 378.1045227 C 380.93936160000004 422.29284670000004 392.7027588 455.6729126 406.823883 455.6729126 C 421.4887084 455.6729126 433.6151428 419.66937260000003 435.52484130000005 372.95425420000004 C 426.74789430000004 369.07345590000006 417.32986450000004 366.38946540000006 406.823883 366.38946540000006 C 396.1968689 366.3894653 386.9966736 371.2012939 378.37677 378.1045227 z M 435.5248413 347.0457458 C 433.6151428 300.3306274 421.4887085 264.32717890000004 406.82388299999997 264.32717890000004 C 392.70275869999995 264.32717890000004 380.93936149999996 297.7071533 378.37676999999996 341.88345330000004 C 386.99667359999995 348.79879750000003 396.19686889999997 353.61053460000005 406.82388299999997 353.61053460000005 C 417.3298645 353.6105347 426.7478943 350.9266052 435.5248413 347.0457458 z M 579.8412476 293.2581177 C 569.3594971 293.2581177 560.7513428 319.6139221 559.7478027999999 353.344574 C 561.9243164999999 354.4205933 564.1970825999999 355.41195680000004 566.5666504999999 356.3066101 C 569.4804688999999 357.4067383 572.8411865999999 357.0077515 575.1263428999999 354.8920288 C 576.4681397999999 353.6468201 578.3058473 352.92138669999997 580.3129273999999 353.05444339999997 C 583.8672486999999 353.28414919999994 586.7568971 356.3428345 586.8052979999999 359.89724739999997 C 586.8655396999999 363.7902223 583.7220459999999 366.95773319999995 579.8412476999998 366.95773319999995 C 578.0036011999998 366.95773319999995 576.3234864999998 366.24441529999996 575.0903321999998 365.07171639999996 C 572.9503785999998 363.06478889999994 569.8069459999998 362.48449719999996 567.0501099999998 363.5120851 C 564.4993287999998 364.4551393 562.0695801999998 365.50695809999996 559.7478028999998 366.6554872 C 560.7513428999998 400.39816299999995 569.3594971999997 426.7419435 579.8412476999998 426.7419435 C 591.0125122999998 426.7419435 600.0557251999999 396.8679506 600.0557251999999 359.9939882 C 600.0557251 323.1321106 591.0125122 293.2581177 579.8412476 293.2581177 z M 144.3417816 365.5673828 C 143.16880799999998 366.4378967 141.73019409999998 366.95773310000004 140.1587524 366.95773310000004 C 136.0359191 366.95773310000004 132.7596283 363.39123530000006 133.243103 359.1839904 C 133.59375 356.0889892 136.0843353 353.52587880000004 139.1670074 353.1027831 C 141.2343139 352.8247374 143.15699759999998 353.45333850000003 144.5956115 354.638214 C 147.99293509999998 357.4671935 152.4900207 358.6157225 156.8666839 357.99914540000003 C 158.0396423 357.82992540000004 159.2002258 357.6606444 160.3484039 357.49139390000005 C 159.94993589999999 321.79006940000005 151.063797 293.2581175 140.1587524 293.2581175 C 128.9874572 293.2581175 119.94429009999999 323.13211040000004 119.94429009999999 359.99398790000004 C 119.94429009999999 396.8679503 128.9874572 426.74194320000004 140.1587524 426.74194320000004 C 151.063797 426.74194320000004 159.94993589999999 398.22201520000004 160.3484039 362.5086974 C 159.2002258 362.3394164 158.0514526 362.1701354 156.8790741 362.00085440000004 C 152.3937988 361.3722534 147.9563293 362.8350525 144.3417816 365.5673828 z M 497.9450684 400.8938904 C 484.9118958 400.8938904 473.01568610000004 394.2323914 460.587616 386.78500369999995 C 464.2989807 443.64352419999994 479.61669930000005 486.235962 497.9450684 486.235962 C 516.6843262 486.235962 532.2800293 441.67285159999994 535.5321656 382.86791999999997 C 523.5751343 392.2979736 512.9481201 400.8938904 497.9450684 400.8938904 z M 497.9450684 233.7640381 C 479.61669930000005 233.7640381 464.29898080000004 276.3686524 460.5752259 333.2149964 C 473.00329600000003 325.7555848 484.9118958 319.1061707 497.9450684 319.1061707 C 512.9481202000001 319.1061707 523.5751343000001 327.68991090000003 535.5321656 337.1200562 C 532.2800293 278.3272095 516.6843262 233.7640381 497.9450684 233.7640381 z M 184.3586426 367.0181885 C 185.44718939999998 416.5864563 197.9720917 455.6729126 213.25379949999999 455.6729126 C 226.3105775 455.6729126 237.3366395 427.17718510000003 240.9517823 387.9819031 C 226.8424683 380.1719055 208.8287354 372.6399841 184.3586426 367.0181885 z M 213.2537994 264.327179 C 197.9720916 264.327179 185.4471893 303.41360480000003 184.3586425 352.9697876 C 208.8405456 347.3601074 226.84246819999998 339.82815550000004 240.9635925 332.01809690000005 C 237.3366394 292.8349915 226.3105774 264.327179 213.2537994 264.327179 z" transform="translate(-360.00000764999993, -359.99999245000004)" paint-order="stroke" style="stroke: none; stroke-width: 1; stroke-dasharray: none; stroke-linecap: butt; stroke-dashoffset: 0; stroke-linejoin: miter; stroke-miterlimit: 4; fill: rgb(255, 119, 177); fill-rule: nonzero; opacity: 1; fill-opacity: 1;"/>
</g>
		<g transform="matrix(0.4921492750180461 0 0 0.4921492750180461 11.139559581663434 -0.0029701454822372853)">
<path stroke-linecap="round" d="M 497.9389648 355.2024536 C 475.7954101 355.2024536 463.2456054 358.945404 406.9506836 358.945404 C 353.9306641 358.945404 332.1850586 351.5515136 310.04492189999996 351.5515136 C 287.90429689999996 351.5515136 274.0195313 357.4830322 217.62890629999998 359.9939574 C 274.0195313 362.5049132 287.90429689999996 368.4364012 310.04492189999996 368.4364012 C 332.18505859999993 368.4364012 353.93066409999994 361.0425108 406.95068359999993 361.0425108 C 463.24560549999995 361.0425108 475.79541019999994 364.7854612 497.93896479999995 364.7854612 C 520.0825193999999 364.7854612 532.0625 360.83837869999996 547.6401367 359.9939573 C 532.0625 359.1495667 520.0825195 355.2024536 497.9389648 355.2024536 z" transform="translate(-382.6345215, -359.9939574)" paint-order="stroke" style="stroke: none; stroke-width: 1; stroke-dasharray: none; stroke-linecap: butt; stroke-dashoffset: 0; stroke-linejoin: miter; stroke-miterlimit: 4; fill: rgb(46, 210, 255); fill-rule: nonzero; opacity: 1; fill-opacity: 1;"/>
</g>
</g>
</g></g></g></svg>